<?xml version="1.0" standalone="no"?>
<!DOCTYPE svg PUBLIC "-//W3C//DTD SVG 20010904//EN"
 "http://www.w3.org/TR/2001/REC-SVG-20010904/DTD/svg10.dtd">
<svg version="1.0" xmlns="http://www.w3.org/2000/svg"
 width="300.000000pt" height="300.000000pt" viewBox="0 0 300.000000 300.000000"
 preserveAspectRatio="xMidYMid meet">
<metadata>
Created by potrace 1.14, written by Peter Selinger 2001-2017
</metadata>
<g transform="translate(0.000000,300.000000) scale(0.100000,-0.100000)"
fill="#000000" stroke="none">
<path d="M410 1505 l0 -755 105 0 105 0 0 301 0 300 553 -4 c416 -2 562 -6
592 -16 65 -21 101 -55 124 -116 19 -50 21 -78 21 -260 l0 -205 95 0 95 0 0
228 c0 135 -5 243 -11 267 -7 25 -29 57 -58 86 -41 41 -66 54 -161 86 -8 3 14
11 50 19 83 18 137 55 169 119 25 48 26 55 26 245 0 234 -10 276 -85 350 -52
53 -125 83 -245 100 -41 5 -343 10 -722 10 l-653 0 0 -755z m1326 574 c79 -14
137 -49 159 -96 24 -49 33 -232 16 -310 -16 -68 -61 -115 -133 -140 -47 -15
-112 -18 -605 -21 l-553 -3 0 290 0 291 528 0 c334 0 550 -4 588 -11z"/>
<path d="M2230 2230 l0 -30 145 0 145 0 0 -140 0 -140 25 0 25 0 -2 168 -3
167 -167 3 -168 2 0 -30z"/>
</g>
</svg>
